<svg width="30" height="30" viewBox="0 0 30 30" fill="none" xmlns="http://www.w3.org/2000/svg">
<g id="language">
<path id="Vector" d="M15 29.4001C22.9529 29.4001 29.4 22.953 29.4 15.0001C29.4 7.0472 22.9529 0.600098 15 0.600098C7.04708 0.600098 0.599976 7.0472 0.599976 15.0001C0.599976 22.953 7.04708 29.4001 15 29.4001Z" stroke="black" stroke-width="1.2" stroke-miterlimit="10" stroke-linecap="round"/>
<path id="Vector_2" d="M15 29.4001C18.9764 29.4001 22.2 22.953 22.2 15.0001C22.2 7.0472 18.9764 0.600098 15 0.600098C11.0235 0.600098 7.79999 7.0472 7.79999 15.0001C7.79999 22.953 11.0235 29.4001 15 29.4001Z" stroke="black" stroke-width="1.2" stroke-miterlimit="10" stroke-linecap="round"/>
<path id="Vector_3" d="M3.81897 24.2629C6.45957 22.6375 10.4874 21.6001 15 21.6001C19.4508 21.6001 23.4294 22.6093 26.0706 24.1951" stroke="black" stroke-width="1.2" stroke-miterlimit="10"/>
<path id="Vector_4" d="M26.181 5.73779C23.5404 7.36259 19.5126 8.39999 15 8.39999C10.5498 8.39999 6.57058 7.39079 3.92938 5.80499" stroke="black" stroke-width="1.2" stroke-miterlimit="10"/>
<path id="Vector_5" d="M0.599976 15H29.4" stroke="black" stroke-width="1.2" stroke-miterlimit="10"/>
<path id="Vector_6" d="M15 0.600098V29.4001" stroke="black" stroke-width="1.2" stroke-miterlimit="10"/>
</g>
</svg>
