<svg width="40" height="40" viewBox="0 0 40 40" fill="none" xmlns="http://www.w3.org/2000/svg">
<g id="filled sun">
<path id="Vector" d="M19.9551 7.17473C20.8207 7.17473 21.5415 6.45552 21.5415 5.5695V1.60522C21.5415 1.18274 21.375 0.777286 21.078 0.476784C20.7811 0.176283 20.3776 0.00497035 19.9551 0C19.5294 0 19.1211 0.169121 18.8201 0.47016C18.519 0.771198 18.3499 1.17949 18.3499 1.60522V5.57107C18.3503 5.99653 18.5196 6.40443 18.8206 6.70512C19.1216 7.00582 19.5297 7.17473 19.9551 7.17473ZM28.9916 10.9549C29.2945 11.2514 29.7016 11.4175 30.1255 11.4175C30.5494 11.4175 30.9565 11.2514 31.2594 10.9549L34.0811 8.13314C34.374 7.8283 34.5375 7.42197 34.5375 6.99925C34.5375 6.57653 34.374 6.17021 34.0811 5.86537C33.7798 5.57253 33.3761 5.40872 32.9559 5.40872C32.5357 5.40872 32.132 5.57253 31.8307 5.86537L28.9932 8.70284C28.7004 9.0042 28.5365 9.40786 28.5365 9.82807C28.5365 10.2483 28.7004 10.6519 28.9932 10.9533M32.7371 20.0087C32.7371 20.8742 33.4752 21.595 34.3424 21.595H38.3066C39.1722 21.595 39.893 20.8758 39.893 20.0087C39.893 19.1415 39.1738 18.4034 38.3066 18.4034H34.3408C33.4752 18.4034 32.7371 19.1431 32.7371 20.0087ZM28.99 29.064C28.6972 29.3654 28.5334 29.769 28.5334 30.1892C28.5334 30.6095 28.6972 31.0131 28.99 31.3145L31.8322 34.1724C32.1403 34.4541 32.5437 34.6088 32.9612 34.6053C33.3787 34.6018 33.7793 34.4404 34.0827 34.1535C34.3755 33.8522 34.5393 33.4485 34.5393 33.0283C34.5393 32.6081 34.3755 32.2044 34.0827 31.9031L31.2421 29.064C30.9363 28.7797 30.5343 28.6217 30.1168 28.6217C29.6994 28.6217 29.2973 28.7797 28.9916 29.064M19.9551 32.8442C19.0691 32.8442 18.3499 33.5634 18.3499 34.4305V38.4137C18.3499 39.2792 19.0691 40 19.9551 40C20.8207 40 21.5415 39.2808 21.5415 38.4137V34.4336C21.5415 33.5681 20.8207 32.8473 19.9551 32.8473M10.8998 29.0672C10.2719 28.477 9.23948 28.477 8.63044 29.0672L5.80871 31.8889C5.51752 32.1901 5.35332 32.5917 5.35009 33.0107C5.34687 33.4296 5.50488 33.8337 5.7914 34.1394C6.09832 34.4262 6.50184 34.5872 6.92191 34.5904C7.34198 34.5936 7.74791 34.4388 8.05917 34.1567L10.8809 31.316C11.1723 31.0151 11.3368 30.6135 11.3403 30.1946C11.3438 29.7757 11.1861 29.373 10.8998 29.0672ZM7.15426 20.0102C7.15426 19.1447 6.41775 18.405 5.55061 18.405H1.58477C0.719203 18.405 0 19.1447 0 20.0102C0 20.8758 0.719204 21.5966 1.58634 21.5966H5.55219C6.41775 21.5966 7.15426 20.8774 7.15426 20.0102ZM10.8825 10.9533C11.4915 10.3631 11.4915 9.31188 10.9014 8.70284L8.07806 5.86537C7.46901 5.27521 6.43664 5.25632 5.82759 5.86537C5.21855 6.49172 5.21855 7.5241 5.80871 8.11583L8.63044 10.9533C8.93181 11.2461 9.33546 11.4099 9.75567 11.4099C10.1759 11.4099 10.5811 11.2461 10.8825 10.9533ZM19.9363 29.415C25.0635 29.415 29.3237 25.1548 29.3237 20.0102C29.3237 14.8468 25.0635 10.5866 19.9363 10.5866C14.809 10.5866 10.5488 14.8468 10.5488 20.0102C10.5488 25.1564 14.809 29.415 19.9363 29.415Z" fill="#FFCC00"/>
</g>
</svg>
