<svg width="37" height="38" viewBox="0 0 37 38" fill="none" xmlns="http://www.w3.org/2000/svg">
<g id="starry moon">
<path id="Vector" d="M29.2342 21.1651C29.5751 21.1651 29.81 20.9318 29.8453 20.571C30.4395 15.7674 30.6744 15.6431 35.549 14.8509C35.9267 14.7957 36.16 14.5992 36.16 14.2568C36.16 13.9145 35.9267 13.6996 35.6211 13.6443C30.7081 12.7094 30.4395 12.7278 29.8453 7.92422C29.81 7.56499 29.5751 7.3301 29.2342 7.3301C28.9103 7.3301 28.6754 7.56499 28.6217 7.90579C28.0106 12.7815 27.831 12.9427 22.8458 13.6443C22.6948 13.6583 22.5548 13.7296 22.4546 13.8434C22.3544 13.9573 22.3016 14.1052 22.3069 14.2568C22.3069 14.5792 22.5403 14.7957 22.8473 14.8509C27.831 15.8027 27.9922 15.8027 28.6217 20.6079C28.6754 20.9302 28.9103 21.1651 29.2342 21.1651ZM20.6319 8.98502C20.8468 8.98502 20.9558 8.85914 20.9911 8.66264C21.55 5.65676 21.5316 5.58461 24.6621 4.99203C24.8601 4.95518 25.0045 4.8293 25.0045 4.61437C25.0045 4.39945 24.8601 4.27203 24.6621 4.23672C21.5316 3.6073 21.639 3.53514 20.9927 0.56611C20.9574 0.368072 20.8499 0.242188 20.6319 0.242188C20.4139 0.242188 20.2895 0.368072 20.2542 0.564575C19.6247 3.53514 19.7322 3.60576 16.6017 4.23672C16.3867 4.27203 16.2593 4.39791 16.2593 4.61437C16.2593 4.8293 16.3852 4.95518 16.6017 4.99203C19.7337 5.62145 19.6969 5.65676 20.2542 8.6611C20.2895 8.86068 20.4154 8.98502 20.6319 8.98502ZM15.7035 37.6084C22.1979 37.6084 27.4886 34.3692 29.8821 28.7566C30.1508 28.1272 30.1155 27.5699 29.79 27.246C29.5398 26.9758 29.0362 26.9389 28.4958 27.1385C27.0019 27.7311 25.3115 28.0197 23.3509 28.0197C15.2 28.0197 9.94765 22.9106 9.94765 14.9216C9.94765 12.889 10.3238 10.6046 10.9364 9.36421C11.2419 8.73479 11.2419 8.17599 10.9533 7.85206C10.6478 7.49283 10.0904 7.43757 9.38726 7.70776C3.86474 9.90306 0.160034 15.6953 0.160034 22.2812C0.160034 31.024 6.61756 37.6084 15.7035 37.6084Z" fill="white"/>
</g>
</svg>
