<svg width="45" height="36" viewBox="0 0 45 36" fill="none" xmlns="http://www.w3.org/2000/svg">
<g id="starry moon">
<path id="Vector" d="M1.50129 36H42.7072C43.5167 36 44.2085 35.3788 44.2085 34.6208C44.2085 33.8627 43.5167 33.2401 42.7072 33.2401H1.50129C0.690298 33.2401 0 33.8612 0 34.6208C0 35.3788 0.690298 36 1.50129 36ZM31.4431 27.6863C31.4431 22.5977 27.2189 18.3363 22.1116 18.3363C16.9896 18.3363 12.7639 22.5977 12.7639 27.6863C12.7639 28.9448 13.0229 30.1519 13.5057 31.222H30.7013C31.198 30.1098 31.4509 28.9043 31.4431 27.6863ZM3.74292 28.6696H7.98626C8.88409 28.6696 9.55525 28.0484 9.53759 27.2712C9.5214 26.4955 8.86495 25.8743 7.98626 25.8743H3.74292C2.84509 25.8743 2.20778 26.4955 2.20778 27.2727C2.20778 28.0484 2.84656 28.6696 3.74292 28.6696ZM11.1257 18.7161C11.7454 19.3535 12.677 19.3711 13.2128 18.8192C13.7486 18.2672 13.7471 17.3531 13.1098 16.7319L10.1072 13.7305C9.46988 13.0932 8.58972 13.1094 8.03777 13.6452C7.48583 14.1795 7.46817 15.0759 8.12461 15.7148L11.1257 18.7161ZM30.9957 18.8192C31.5476 19.3535 32.4617 19.3535 33.0828 18.7161L36.0839 15.7133C36.7389 15.0759 36.705 14.1972 36.1692 13.6452C35.635 13.0932 34.7386 13.0932 34.0998 13.7305L31.0972 16.7334C30.4599 17.3531 30.4452 18.2848 30.9957 18.8192ZM36.2193 28.6696H40.4626C41.3605 28.6696 41.9978 28.0484 41.9978 27.2712C41.9978 26.4955 41.3605 25.8743 40.4626 25.8743H36.2222C35.3435 25.8743 34.6532 26.4955 34.6709 27.2727C34.6871 28.0484 35.3435 28.6696 36.2222 28.6696M22.1116 0C21.3359 0 20.6986 0.690354 20.6986 1.53527V7.98692L20.9047 10.5923L19.8008 9.29697L17.4723 6.95212C17.3538 6.82879 17.212 6.73018 17.0551 6.66196C16.8982 6.59375 16.7294 6.55729 16.5583 6.55469C15.868 6.55469 15.3676 7.0213 15.3676 7.71018C15.3676 8.07229 15.4883 8.34902 15.7826 8.60809L21.1637 13.6275C21.5258 13.9543 21.7849 14.0765 22.1116 14.0765C22.4222 14.0765 22.6812 13.9543 23.0433 13.6275L28.4244 8.60809C28.5586 8.50102 28.666 8.3641 28.7381 8.20823C28.8101 8.05236 28.8448 7.88182 28.8394 7.71018C28.8394 7.0213 28.339 6.55469 27.6487 6.55469C27.4779 6.55748 27.3094 6.59403 27.1527 6.66224C26.9961 6.73045 26.8545 6.82897 26.7362 6.95212L24.5784 9.12475L23.3023 10.5908L23.5084 7.98544V1.53674C23.5099 0.690355 22.8726 0 22.1131 0" fill="#FFCC00"/>
</g>
</svg>
